<svg xmlns="http://www.w3.org/2000/svg" width="640" height="800" viewBox="0 0 640 800" role="img" aria-labelledby="title desc">
  <title id="title">Profile placeholder</title>
  <desc id="desc">Abstract portrait placeholder for Anshika Pandey</desc>
  <rect width="100%" height="100%" fill="#f8f2e9" />
  <circle cx="320" cy="240" r="160" fill="#c8a96b" opacity="0.2" />
  <path fill="#0f172a" d="M320 110c44 0 80 36 80 80s-36 80-80 80-80-36-80-80 36-80 80-80zm0 240c70 0 130 38 162 95 5 9 1 20-8 24-9 5-20 1-24-8-25-44-72-71-129-71s-104 27-129 71c-4 9-15 13-24 8-9-5-13-15-8-24 32-57 92-95 162-95z" />
  <rect x="160" y="500" width="320" height="160" rx="36" fill="#fff" stroke="#c8a96b" stroke-width="8" opacity="0.9" />
  <text x="320" y="570" text-anchor="middle" fill="#0f172a" font-family="Inter, Arial, sans-serif" font-size="36" font-weight="600">Anshika</text>
  <text x="320" y="620" text-anchor="middle" fill="#64748b" font-family="Inter, Arial, sans-serif" font-size="22">Portfolio Image</text>
</svg>
